<svg width="40" height="40" viewBox="0 0 40 40" fill="none" xmlns="http://www.w3.org/2000/svg">
<path d="M33.8834 6.11656C33.568 5.80351 33.1725 5.58342 32.7404 5.48051C32.3082 5.37761 31.8559 5.39584 31.4334 5.53322L7.05004 13.6666C6.59782 13.8098 6.19822 14.0839 5.90169 14.4542C5.60516 14.8245 5.42501 15.2743 5.38399 15.7469C5.34297 16.2195 5.44292 16.6936 5.67122 17.1095C5.89954 17.5253 6.24594 17.8641 6.66671 18.0833L16.7834 23.0833L21.7834 33.2333C21.9844 33.6305 22.2919 33.9641 22.6715 34.1966C23.0512 34.4291 23.4882 34.5515 23.9334 34.55H24.1C24.5769 34.5148 25.032 34.3371 25.4065 34.0398C25.781 33.7426 26.0575 33.3396 26.2 32.8833L34.45 8.56656C34.5974 8.14644 34.6224 7.69312 34.522 7.25937C34.4217 6.82564 34.2002 6.42932 33.8834 6.11656ZM8.08337 15.9666L29.3667 8.86656L17.55 20.6833L8.08337 15.9666ZM24.05 31.9166L19.3167 22.45L31.1334 10.6332L24.05 31.9166Z" fill="black"/>
</svg>
